<svg xmlns="http://www.w3.org/2000/svg" viewBox="0 0 354.21 297.58"><defs><style>.cls-1,.cls-6{fill:#fff;}.cls-2{fill:#1e3e52;}.cls-3{fill:#f4f9f8;}.cls-4{fill:#d6d7d6;}.cls-5{fill:none;stroke:#fcfcfc;stroke-miterlimit:10;}.cls-6{font-size:45px;font-family:GillSansMT-Bold, Gill Sans MT;font-weight:700;}.cls-7{fill:#fcfcfc;}</style></defs><g id="Capa_2" data-name="Capa 2"><g id="Capa_4" data-name="Capa 4"><path class="cls-1" d="M21,244.55c.57,1.44,14.3-6,31.12-1.77,13.33,3.37,19.36,11.78,25.14,16,27,19.71,73.35-33.28,153.32-52,37.67-8.82,95.3-13,100.15-29.47,2.94-10,2.88-21.59,2.88-21.59a55.28,55.28,0,0,0-1.28-12.26,47.22,47.22,0,0,0-4.09-11.23c-1.32-2.54-2-3.82-2.42-4.09-6.7-4.13-24.59,29.89-57.1,38.54-2.32.61-8,1.55-19.27,3.43-17.23,2.87-29.81,4.42-32.4,4.76-19.89,2.57-62.12,12.4-108.76,29.1C55.89,222.73,20.07,242.23,21,244.55Z"/><path class="cls-1" d="M127.29,23c-10.55,1.08-9.3,2.49-24.51,4.85A158.5,158.5,0,0,0,85,31.57c-1,.26-1.9.54-2.92.86-8.45,2.65-16.76,5.34-24.51,12.25a45,45,0,0,0-9.45,11.49,41.41,41.41,0,0,0-3.32,7.15C42.14,71,43.16,75.61,40,77.37c-1.68.91-2.84.13-4.6,1.53-1,.83-1.82,2-2.55,4.85a34.29,34.29,0,0,0-.77,12c.54,4.9,1.48,6,.51,7.91-1.16,2.25-3.49,2.49-6.63,3.83-7.51,3.21-11.72,9.34-13,11.24-2.22,3.23-5.31,7.72-5.1,13.53.17,5,2.65,7.84.76,10.72-1.38,2.11-3.45,1.72-4.85,4.34-.54,1-.52,1.64-.76,5.88-.15,2.63-.36,5.27-.51,7.91-.37,6.13-.46,5.33-.51,7.66-.09,3.76-.14,6.55.76,10,.74,2.78,1.27,4.8,3.07,6.13s4,1.06,7.14,1c4.43-.07,3,.62,12.52,1.53,8.91.84,9.41.17,14.8,1a67.87,67.87,0,0,1,11,2.81c11.69,3.49,17.68-1.15,36.77-2,14.56-.68,13.19,1.92,26.55.76,9.87-.85,17.75-2.89,26.3-5.1,11.3-2.93,14-4.45,23.49-7.15,11-3.15,18.79-4.37,33.19-6.64,25.87-4.07,24.75-1.92,49-5.87,13.72-2.24,18.48-3.64,28.09-3.58a135.67,135.67,0,0,0,17.1-.51c6.28-.63,9.41-.94,13-2,4.95-1.51,7.08-3.1,12-3.32a15.64,15.64,0,0,0,4.6-.51,14.86,14.86,0,0,0,6.64-4.6c1.75-1.88,4.45-4.8,4.74-8.82a12,12,0,0,0-1.71-6.71c-3.32-6.05.82-2.18-9.13-26.51l-.51-1.26c-3.79-9.17-10-21.44-15.06-31.17-6.84-3.28-17.23-8.31-29.87-14.55C265,56,255.89,51.49,244.77,45.79c-30.08-15.4-48.92-26.33-63.4-26.69l-14.65-.35c-8.9.6-11.64,2.29-21.3,3.47C136.1,23.35,136.91,22,127.29,23Z"/><path class="cls-2" d="M49.55,247.12c5.76-10.53,16.29-16,28-22,.37-.19-.08.18,11.36-5.11,12.95-6,21.27-8,32.92-11.88a8.66,8.66,0,0,1,1.44-.24,7.88,7.88,0,0,1-2.69,1.52c-2.07.61-4.11,1.29-6.16,1.95-.85.27-1.77,1.12-.92,1.63,1.66,1,3.52,2.22,5.53,2a2.5,2.5,0,0,1,3,1.57c1,1.89,1.7,4.54,4.9,3.63.19-.06.46.13.68.23a6.35,6.35,0,0,0,6-.12c.79-.4,1.74-1.08,2.68-.16-13.58,5.08-27,10.52-40.17,16.62-8.52,4-16.92,8.15-25.27,12.46-.73.38-3.86,1.8-7.8,4.09-4.91,2.87-8.25,4.86-11.46,8.33a31.76,31.76,0,0,0-5.88,9.2C44.16,258.56,47.61,250.67,49.55,247.12Zm77.28-24.75a2.75,2.75,0,0,0-.67-.09c-.08,0-.13.26-.19.4a3.09,3.09,0,0,0,.65.16S126.74,222.59,126.83,222.37Z"/><path class="cls-2" d="M136.3,220.17c-4.89,1.74-22.1,8.61-24,9.49h0L91.82,219c41.79-16.29,82.85-27.68,127.83-36.24,25.88-5.16,52.18-8,78-13.39,12.45-2.5,24.91-6.31,35.23-13.94,3.42-2.35,1.2,4.71-.49,5.44-23.5,18.07-54.78,20.25-82.69,27.28C201.64,198.36,185.51,202.91,136.3,220.17Z"/><path class="cls-2" d="M332.35,165.48c-15.05,12.88-45.82,19.89-64.34,24.35-49.75,10.54-143.93,38.62-192.93,67.29C183,341.42,322.29,274.66,332.35,165.48Zm-158.21,89.8c-.57-.16.38-.46.57-.56l.06.43A2.44,2.44,0,0,1,174.14,255.28ZM327.8,186.82c-2.06,3-1.77,7.73-5.71,9.06a182.47,182.47,0,0,1-36.6,36.46c-21.32,15.18-42.07,30.69-63.93,45.21.31-4-3.31-9.67-7-10.84,24.71-18,52.87-31.42,77.24-50.08,12.8-9.88,25.61-20.52,35.3-33.53a4.33,4.33,0,0,1,2.75-1.63A44.94,44.94,0,0,1,327.8,186.82Zm-143,66.4c1.39,3.32,7.39,16.51,22.3,23.15,3,1.32,13.09,5.67,24.85,2.89,8.79-2.07,8.74-5.83,25-16.85,16.53-11.19,20.9-10.25,28.94-19.4,2.65-3,3.37-4.5,10.55-13.11,5.24-6.29,6.75-7.77,10.38-12.59s3.59-5.25,6.13-8.17,4.43-4.62,7.49-8.51c1.28-1.63,2.26-3,2.89-3.92m-19.91-1.87c-.21.25-4,5-2.38,9.53,2.27,6.23,12,7.65,15.31,4.77,1.9-1.64.71-3.78,3.66-7.41,1.62-2,2.6-2.11,3.75-4.3.62-1.18.81-2.05,2-4.42.42-.87.8-1.41,1.27-2.47.31-.7.56-1.48,1-2.85.19-.54.33-1,.43-1.28m-4.9-.6a2,2,0,0,0-1.16,1.28,1.83,1.83,0,0,0,.95,2.14c.25.07.77-.17,1.82-.64a8.94,8.94,0,0,0,1.1-.56c.26-.16.48-.31.91-.62a7.33,7.33,0,0,0,1-.75,4,4,0,0,0,.56-1.17c.19-.51.3-.88.46-1.43s.49-1.72.54-2c0-.07,0-.18.08-.33a.68.68,0,0,0,.06-.16.93.93,0,0,0,0-.19s0-.18-.08-.22-.15,0-.28.13-.31.16-.47.25a2.63,2.63,0,0,1-.75.28"/><path class="cls-2" d="M332.35,165.48c-15.05,12.88-45.82,19.89-64.34,24.35-49.75,10.54-143.93,38.62-192.93,67.29C183,341.42,322.29,274.66,332.35,165.48Zm-158.21,89.8c-.57-.16.38-.46.57-.56l.06.43A2.44,2.44,0,0,1,174.14,255.28ZM327.8,186.82c-2.06,3-1.77,7.73-5.71,9.06a182.47,182.47,0,0,1-36.6,36.46c-21.32,15.18-42.07,30.69-63.93,45.21.31-4-3.31-9.67-7-10.84,24.71-18,52.87-31.42,77.24-50.08,12.8-9.88,25.61-20.52,35.3-33.53a4.33,4.33,0,0,1,2.75-1.63A44.94,44.94,0,0,1,327.8,186.82Zm-143,66.4c1.39,3.32,7.39,16.51,22.3,23.15,3,1.32,13.09,5.67,24.85,2.89,8.79-2.07,8.74-5.83,25-16.85,16.53-11.19,20.9-10.25,28.94-19.4,2.65-3,3.37-4.5,10.55-13.11,5.24-6.29,6.75-7.77,10.38-12.59s3.59-5.25,6.13-8.17,4.43-4.62,7.49-8.51c1.28-1.63,2.26-3,2.89-3.92m-19.91-1.87c-.21.25-4,5-2.38,9.53,2.27,6.23,12,7.65,15.31,4.77,1.9-1.64.71-3.78,3.66-7.41,1.62-2,2.6-2.11,3.75-4.3.62-1.18.81-2.05,2-4.42.42-.87.8-1.41,1.27-2.47.31-.7.56-1.48,1-2.85.19-.54.33-1,.43-1.28m-4.9-.6a2,2,0,0,0-1.16,1.28,1.83,1.83,0,0,0,.95,2.14c.25.07.77-.17,1.82-.64a8.94,8.94,0,0,0,1.1-.56c.26-.16.48-.31.91-.62a7.33,7.33,0,0,0,1-.75,4,4,0,0,0,.56-1.17c.19-.51.3-.88.46-1.43s.49-1.72.54-2c0-.07,0-.18.08-.33a.68.68,0,0,0,.06-.16.93.93,0,0,0,0-.19s0-.18-.08-.22-.15,0-.28.13-.31.16-.47.25a2.63,2.63,0,0,1-.75.28"/><path class="cls-3" d="M253.67,138.74a.29.29,0,0,1,0,.38,1.23,1.23,0,0,0-.33,1.68l-.21,2.75a23.13,23.13,0,0,0,10.69-.17l1.77,0H279.7V144c-1.36,0-2.73-.1-4.08,0-1.19.12-2.62-.66-3.55.74H251a59,59,0,0,0,.14-10.85c-.1-1.55.89-1.21,1.73-1.2,9.2.08,18.34,1,27.5,1.72,2.72.23,5.45.42,8.33.64-1.06,1.25-2.91,1.74-5.29,1.67-9.08-.28-18.16-.49-27.23-.84-1.52-.06-2,.54-2.25,1.79A.81.81,0,0,0,253.67,138.74Z"/><path class="cls-4" d="M272.07,144.74c.93-1.4,2.36-.62,3.55-.74,1.35-.13,2.72,0,4.08,0v-.63H265.55c5.3-.74,10.63-.29,15.94-.2,1.72,0,3.51-.07,5.17.93A74.19,74.19,0,0,1,272.07,144.74Z"/><path class="cls-4" d="M263.78,143.38a23.13,23.13,0,0,1-10.69.17A90.77,90.77,0,0,1,263.78,143.38Z"/><path class="cls-4" d="M253.3,140.8a1.23,1.23,0,0,1,.33-1.68A1.31,1.31,0,0,1,253.3,140.8Z"/><path class="cls-4" d="M160.76,117.56l.32,0-.08-.17-.28.22Z"/><path class="cls-4" d="M141.19,132.81l.54.12s-.1.06-.13,0-.25-.14-.37-.21Z"/><path class="cls-4" d="M253.67,138.74a.81.81,0,0,1,.23-1.07C254.22,138.11,254.07,138.45,253.67,138.74Z"/><path class="cls-2" d="M167.13,75.14c-.13,0-.34,0-.36-.12-.08-.27.07-.39.35-.35A.59.59,0,0,0,167.13,75.14Z"/><path class="cls-2" d="M16.39,203.62l-2.91,1.21m27.14,28c9.2-4.54,16.4-6.36,34.92-14,.69-.28,2.45-1,4.9-2,6.71-2.68,12.26-4.76,16-6.12,2.12-1.41,2.45-2.05,2.33-2.38-.41-1.12-6.14,1.48-12.36-.32-4.77-1.38-8.85-5.06-8.32-6.61.4-1.17,3.5-1.08,4.48-1.07,1.42,0,15.8-3.87,44.49-11.64,18.22-4.93,27-7.31,40.41-9.72,2.92-.52,3.36-.51,3.76-.62l.2-.06h0c15.77-2.73,28.54-4.25,36.69-5.09,47.38-4.94,72.13-1.24,106.55-15,5.52-2.21,9.85-4.29,12.3-5.51a9,9,0,0,0,3.39-2.61c2.48-3.17,2.52-8,.31-12.48q-35.22-4.79-72.69-8.61-40.86-4.11-79.42-6.49h0c-.65-1-.73-1.91-.76-9.66,0-4.66,0-8.49,0-8.85,0-3.85,0-7.71,0-11.57V15.45a72.17,72.17,0,0,0-9.68.84c-2.1.33-4.07.73-5.9,1.18,0,.18.07.38.11.57a23.64,23.64,0,0,1-4,1.45c-3.41.79-3.62-.22-10.63-.67a81.13,81.13,0,0,0-9.22.37c-3.77.26-6.53.56-9.51.88-4.9.54-8.8,1.08-11.1,1.42-1.76.26-4.5.68-7.8,1.25q-8,1.38-16.41,3.34c-10.73,2.48-16.09,3.73-21.23,5.78C66.82,34.08,61.56,36.23,56,41A49.15,49.15,0,0,0,45.75,53.49c-2.34,4.06-4,6.86-4.86,11.1-1,4.68-.37,7.48-2.73,9.59-1.94,1.72-3.66,1-5.59,3.13-1.35,1.48-1.66,3.11-2.16,5.69a31.5,31.5,0,0,0-.2,9.76c.34,2.37.77,3.35.34,5.07A8.78,8.78,0,0,1,28,102c-4.06,4-8.24,5.71-11.88,8.34-2.43,1.76-8.62,6.23-10,13.13-.12.56-.24,3.47-.5,9.29-.23,5.16-.19,6-.57,7.7-.94,4.22-2.52,5.18-3.9,8.68-1.18,3-.45,3.33-.87,13.59-.19,4.54-.56,10,.27,15.78A9.87,9.87,0,0,0,3,184.13a9.75,9.75,0,0,0,3.27,2.08c2,.86,4.1,1.21,8.65,1.24,6.59,0,8-.71,10.09.61,1.54,1,1.24,1.62,3.24,3.3,1.81,1.52,6.28,2.36,7,3.55,1.83,2.85-15,12.16-23.64,28.31C6.05,233.64,5.37,244.11,5,250.52c-.66,10.13.6,20.83,1.7,20.86.74,0,.77-4.84,2-9.45C13,246.49,29.88,238.13,40.62,232.82Zm129.81-100a2.06,2.06,0,0,1-1.35,1.6H169a1.57,1.57,0,0,1-.44.1l-19,1a1.46,1.46,0,0,1-.15-2.92l17-.91-3.84-66.57a.39.39,0,0,1,.32-.41,6.32,6.32,0,0,1,4.9.8,6,6,0,0,1,1.91,3.22C171.06,74.15,170.55,123.34,170.43,132.84ZM81.85,146.48a27,27,0,0,0-4.72,4,1.31,1.31,0,0,0-.53.58l-6.54,13.45a1.37,1.37,0,0,1-.67.65h0a1.37,1.37,0,0,1-1.84-1.74,63.71,63.71,0,0,1,7-18.32,1.38,1.38,0,0,1,.27-.43,1.53,1.53,0,0,1,.4-.31,76.21,76.21,0,0,1,9.66-5.78,77.14,77.14,0,0,1,10.6-4.36l.12-.05.13,0,26.9-7.4.06,0a294.26,294.26,0,0,1,38-7,1.62,1.62,0,0,1-.13.63,1.38,1.38,0,0,1-.6.63l-10.75,2.55-59,19.19a1.69,1.69,0,0,0-.28.12A27,27,0,0,0,81.85,146.48Zm.6,5.56a62.52,62.52,0,0,1-2,7.46c-.61,1.83-1.26,3.53-1.92,5.08a6.08,6.08,0,0,1-2,.86,6,6,0,0,1-1.92.15c.12-2,.71-7.36,4.83-11.35A15.55,15.55,0,0,1,82.45,152ZM132.5,82.22a6.5,6.5,0,0,1-2,.3,6.9,6.9,0,0,1-1.07-.09.59.59,0,0,0-.7.55c0,.67-.1,1.59-.1,1.63s-.13,2-.17,2.74a.54.54,0,0,1-.19.39,20.39,20.39,0,0,1-4.19,2.87,21,21,0,0,1-4.53,1.72.59.59,0,0,0-.45.59V94a.6.6,0,0,0,.78.56l24.88-8a.59.59,0,0,1,.78.62l-.24,2.76a.61.61,0,0,1-.39.51l-17.57,6.45a.62.62,0,0,0-.39.48l-.34,2.36a.58.58,0,0,1-.42.48l-6.87,2a.59.59,0,0,0-.43.56l-.52,18.6a.6.6,0,0,0,.68.61l9.06-1.27a.6.6,0,0,1,.22,1.17l-12.25,2.83a.6.6,0,0,1-.73-.61l1.51-31.61a1.41,1.41,0,0,1,.54-1l7.58-6a.56.56,0,0,0,.23-.43l1.21-19.15a2.65,2.65,0,0,1,1-1.87,5.61,5.61,0,0,1,6.77-.35,2.68,2.68,0,0,1,1.18,2.2l.12,20a.52.52,0,0,1,0,.21,2.83,2.83,0,0,1-2.17,1.74V82.79A.59.59,0,0,0,132.5,82.22Zm14.39,35,0-51c.1-1.09.38-3.61.77-3.61s.72,2.53.85,3.61l-.18,51.06c-.08.7-.36,3-.74,3S147,117.91,146.89,117.22ZM44.11,68.3c.1-.25.09-.25.55-1.67.16-.5.36-1.13.51-1.57a14.39,14.39,0,0,1,1.25-3.18A5.56,5.56,0,0,1,48,60.33c1.59-.44,11-3,19.22-4.88,4.27-1,9-1.88,9-1.88l4.11-.8c3.63-.68,6.43-1.15,7.58-1.34,3.77-.63,6.68-1,7.8-1.21,2.92-.41,5.08-.68,7.19-.94,3.45-.43,5.31-.66,8-.89,4.06-.35,6.1-.52,7.1-.21s2.4,1,3.25.33c.67-.49.47-1.3,1.4-2.15a3.2,3.2,0,0,1,.62-.46A8.91,8.91,0,0,1,120,45c-2.36-1-6.22-.63-13.87.09-5.48.52-10.1,1.22-15.92,2.21-11,1.88-16.5,2.82-21.69,4.15-11.27,2.86-16.9,5.61-18,3.94-.8-1.25,1.58-4.15,4.2-7.32A37.61,37.61,0,0,1,63,40.53c.82-.54,3.77-2.42,10.83-4.89A117.79,117.79,0,0,1,87,32c8.15-1.9,15.13-3.22,20.39-4.14,1.68-.29,7.33-1.12,18.64-2.79,3-.43,5.93-.57,8.88-1s7.4-1.24,10.71.38A2.72,2.72,0,0,1,147.21,26c.32,1.19-.74,2.51-1.66,3.19a6.41,6.41,0,0,1-3.14,1,35,35,0,0,0-5.63,1.49,17.38,17.38,0,0,0-5.93,3.64,16.61,16.61,0,0,0-4.33,5.77c-1.06,2.46-.84,3.83-2,4.53.13.18-.59.65-1,1.79-.25.69-.16.94-.38,1.63a11.85,11.85,0,0,1-1.78,3.67c-.56.79-1.21,1.48-1.06,1.66s.23,0,.26,0c.51-.11,13.25,1,38.59,4.33a3.85,3.85,0,0,0,3.08-.6c1.09-1,.49-2.75-.67-10.41a45.39,45.39,0,0,0-1.88-8.11,41.93,41.93,0,0,0-4-8.61,54,54,0,0,0-3.47-4.8,10.48,10.48,0,0,0-1.74-1.86c-1-.82-1.67-1-1.63-1.16s.35-.42,8,.75c4.23.65,7.06,1.19,7.65,2.8,0,.06.15.55.42,1.53.37,1.31.55,2,.67,2.48.25,1.06.25,1.41.51,3.12.23,1.49.28,1.54.65,3.67.34,2,.56,3.44.71,4.5.46,3.08.74,5.42.8,5.92.39,3.36.21,2.55.66,6.61,0,.43.12,1.67.27,4.17.13,2.16.17,3-.38,3.43-.25.17-.53.18-2.4-.22-1.33-.28-2.36-.53-2.48-.56-.95-.23-1.92-.37-3.87-.65-.74-.11-1.72-.24-4.79-.59-2.43-.28-2.73-.3-3.91-.43-3.56-.41-4-.6-7.75-1.08-1.31-.17-3.49-.45-6.34-.69s-4.74-.33-6.3-.39c-1.77-.08-5-.19-9.11-.16-3.8,0-6.84.16-8.67.26-4,.22-7,.51-9.91.8-1.56.16-4.47.46-8.2.95-1.84.24-8.45,1.11-17.43,2.76,0,0-9.68,1.77-21.2,4.5-2.95.69-7.59,1.85-9,2.21l-2.27.58c-.92.32-1.45.6-1.61.42S43.7,69.33,44.11,68.3ZM41.82,83c1.18-4.6.44-5.73,2-7.41.5-.53,1.17-1.06,6.38-2.44,4.41-1.18,9.41-2.23,12.23-2.66,5.89-.9,1.17-.37,17-3.1,5-.86,12.08-2,20.87-3.28,1.32-.22,15.7-2.56,17.36-2.34a1.46,1.46,0,0,1,1,.51,1.5,1.5,0,0,1,.13,1.15c-.37,1.69-2.91,21.41-3.07,24.06,0,.25,0,1-.55,1.35a1.69,1.69,0,0,1-1.87-.39c-.82-.8-.6-2.27-.51-2.81.89-5.82,2.21-18.17,2.71-21.29-.54.91-2.35,1-6.13,1.54-.82.11-1.65.26-2.48.34-22.6,2.15-37.65,6.61-37.65,6.61A50.21,50.21,0,0,0,56.73,78a42.4,42.4,0,0,0-8.41,6.62c-2.57,2.66-3.85,4-4.57,5.66-.42,1-2,5-3.28,5.69a.74.74,0,0,1-1.25-.6C38.94,93.72,41.42,84.53,41.82,83ZM10.68,128.23a18.1,18.1,0,0,1,.77-4.52,9,9,0,0,1,1.9-3.46h0a73.62,73.62,0,0,1,9.94-9.55A74.41,74.41,0,0,1,39,101.14l.45-.14c10.9-2.16,22.66-4.08,35.23-5.57C87.87,93.86,100.34,93,112,92.53a2.07,2.07,0,0,1,2.14,2.09L114,110.56l-1.11-5.51a2.07,2.07,0,0,0-2.51-1.6l-1.23.29a2.09,2.09,0,0,0-1.4,1.14l-1,2.25a2,2,0,0,1-.93,1L71.66,125.63a2,2,0,0,0-1,1.28L67.23,139a2.1,2.1,0,0,1-.75,1.1l-7.08,5.29a2.07,2.07,0,0,0-.81,1.39l-3.85,29.07a2.07,2.07,0,0,1-1.84,1.79l-3.24.33a2,2,0,0,0-1.11.46L47,179.76a2.11,2.11,0,0,1-1.41.47l-22.62-1a2.06,2.06,0,0,1-1.86-1.41h0a2.1,2.1,0,0,0-1.25-1.27c-1.09-.4-2-.82-2.64-1a1.38,1.38,0,0,1-.89-1C14.68,167,13.15,159,11.76,150.63,11.76,150.63,10.59,143.54,10.68,128.23ZM4.6,145.8c.54,1.15,1.09,2.3,1.63,3.44a1,1,0,0,1,.14.44l1,16.31a1.15,1.15,0,0,1-1.57,1,1.06,1.06,0,0,1-.78-.92Zm107.24,34.43a1.27,1.27,0,0,1-1.13,1.22L86.26,184h-.15l-49-.64-25.14-1a1.14,1.14,0,0,1-.33-.06l-3.88-1.22a1.25,1.25,0,0,1-.84-.87L5.12,173.7a1.26,1.26,0,0,1,1.4-1.59l3.68.52a1.27,1.27,0,0,1-.28,2.52l-1.12-.09a1.27,1.27,0,0,0-1.28,1.73l.73,1.87a1.27,1.27,0,0,0,.82.76l3.2.93a1,1,0,0,0,.29.05l24.66,1.35h.07l48.57.08H86l22.16-2.46a1.26,1.26,0,0,0,1.13-1.23l.19-10.17a1.27,1.27,0,0,0-1.45-1.28l-21.58,3.15a1.25,1.25,0,0,0-.91.61l-1.15,2a1.28,1.28,0,0,1-.94.62l-16.7,2.06a1.27,1.27,0,0,1-1.42-1.33l0-.83a1.29,1.29,0,0,1,1.06-1.18l43.24-7.17a1.3,1.3,0,0,1,.52,0l1.21.3a1.28,1.28,0,0,1,1,1.28Zm-.76-19.83-12.3,2.18,9.5-4.38a1.83,1.83,0,0,0,1-1.45,28.61,28.61,0,0,1,5.84-14.48,27.87,27.87,0,0,1,7.62-6.71,31.41,31.41,0,0,1,5.91-2.86,31.78,31.78,0,0,1,5.49-1.45,8.12,8.12,0,0,1,6.83,3.68,28.93,28.93,0,0,0-16.79,5.17c-8.65,6.11-11,15.24-11.68,18.83A1.81,1.81,0,0,1,111.08,160.4Zm32.3,19.76c-2.74,3.29-6.3,5.29-10.22,5.29-8.61,0-15.59-9.63-15.59-21.5s7-21.51,15.59-21.51c7.65,0,14,7.6,15.33,17.62A25.41,25.41,0,0,1,149,165C149,171.19,146.78,176.69,143.38,180.16ZM230,165.6a10,10,0,0,1-7.62,4c-6.43,0-11.63-7.19-11.63-16.05s5.2-16,11.63-16c5.7,0,10.44,5.67,11.43,13.14a19.13,19.13,0,0,1,.37,3.68A16.28,16.28,0,0,1,230,165.6Zm19.21-4.95c-5.83.52-6.24.67-8.42.68-3.29,0-4.72.46-5.11-.2a2.43,2.43,0,0,1-.13-.9,7.94,7.94,0,0,1,0-1.28c1.79-13.69-4.93-19.74-4.93-19.74-3.94-3.6-9.27-3.43-9.95-3.4a11.5,11.5,0,0,0-6.3,1.9c-3.07,2.14-4.36,5.67-4.59,5.68a25.42,25.42,0,0,0-2.27,9.35,26,26,0,0,0,2.22,11.66,1,1,0,0,1-.79,1.39L153,172.36a1,1,0,0,1-1.11-1.1,43.54,43.54,0,0,0-6.4-27.95,1,1,0,0,1,.79-1.51l64.48-4.08a.28.28,0,0,1,0-.09,1.62,1.62,0,0,0-.38-.81,2.3,2.3,0,0,0-1.78-.46c-3.27.25-6.55.27-9.82.36-2,.05-3.43.07-4.7-.88-.37-.27-1.12-.82-1-1.31.2-1.21,5.34-1.14,12.89-1.32,10.72-.26,15.67-.79,22.11,1a15.52,15.52,0,0,1,4.73,2.08c.73.49,5.09,3.11,6.08,8a35.8,35.8,0,0,1,.88,6.7c0,1.54-.2,2.54.49,3.37.86,1,2.49,1,4.2,1.12,5.08.45,9.53,3.56,9.32,4.52C253.6,160.3,253,160.33,249.25,160.65Zm53-3.09a6.52,6.52,0,0,1-5,2.58c-4.19,0-7.59-4.69-7.59-10.47s3.4-10.46,7.59-10.46c3.72,0,6.81,3.7,7.45,8.57a12.52,12.52,0,0,1,.24,2.4A10.61,10.61,0,0,1,302.29,157.56Zm13.16-2.86a5.28,5.28,0,0,1-4,2.08c-3.38,0-6.11-3.78-6.11-8.43s2.73-8.43,6.11-8.43c3,0,5.48,3,6,6.9a10.19,10.19,0,0,1,.19,1.93A8.58,8.58,0,0,1,315.45,154.7Zm10.3-4.39a4.09,4.09,0,0,1-3.13,1.62c-2.64,0-4.78-3-4.78-6.59s2.14-6.59,4.78-6.59c2.34,0,4.29,2.33,4.69,5.4a7.36,7.36,0,0,1,.15,1.51A6.69,6.69,0,0,1,325.75,150.31Z"/><path class="cls-2" d="M148.49,160.06c-1.61-8.12-7.06-14.11-13.55-14.11-7.76,0-14,8.52-14,19s6.29,19,14,19a11.81,11.81,0,0,0,8.44-3.86A25.45,25.45,0,0,0,148.75,164,30.86,30.86,0,0,0,148.49,160.06Z"/><path class="cls-2" d="M233.85,150.6c-1.2-6-5.26-10.52-10.11-10.52-5.78,0-10.47,6.35-10.47,14.2s4.69,14.2,10.47,14.2a8.79,8.79,0,0,0,6.3-2.88,19,19,0,0,0,4-12.1A23,23,0,0,0,233.85,150.6Z"/><path class="cls-2" d="M304.77,147.78c-.78-3.95-3.43-6.86-6.59-6.86-3.77,0-6.83,4.14-6.83,9.26s3.06,9.26,6.83,9.26a5.75,5.75,0,0,0,4.11-1.88,12.38,12.38,0,0,0,2.61-7.89A14.75,14.75,0,0,0,304.77,147.78Z"/><path class="cls-2" d="M317.45,146.82c-.63-3.18-2.77-5.53-5.32-5.53-3,0-5.5,3.34-5.5,7.46s2.47,7.46,5.5,7.46a4.63,4.63,0,0,0,3.32-1.51,10,10,0,0,0,2.1-6.35A12.82,12.82,0,0,0,317.45,146.82Z"/><path class="cls-2" d="M327.31,144.15c-.49-2.49-2.16-4.33-4.15-4.33-2.38,0-4.3,2.62-4.3,5.84s1.92,5.83,4.3,5.83a3.62,3.62,0,0,0,2.59-1.18,7.81,7.81,0,0,0,1.65-5A9.25,9.25,0,0,0,327.31,144.15Z"/><path class="cls-2" d="M203.89,155.38a30.23,30.23,0,0,1,.75-7.55,1.16,1.16,0,0,0-1.23-1.41l-49.66,3.91a1.15,1.15,0,0,0-1,1.47,52.48,52.48,0,0,1,1.71,8.68,51.62,51.62,0,0,1,.3,7.45,1.16,1.16,0,0,0,1.3,1.18l47.78-5.62a1.17,1.17,0,0,0,1-1.45A30.37,30.37,0,0,1,203.89,155.38Z"/><path class="cls-2" d="M123.21,45.9a2.43,2.43,0,0,0,1.26-.31C124.36,45.45,123.8,45.56,123.21,45.9Z"/><path class="cls-2" d="M14.09,130.71l39.33.36a.88.88,0,0,1,.87.86v.46a.87.87,0,0,1-.89.89l-38.66-.45a.88.88,0,0,0-.88.88v1.45a.87.87,0,0,0,.87.87l37.87.34a.88.88,0,0,1,.87.86v.69a.87.87,0,0,1-.89.89l-37.19-.49a.88.88,0,0,0-.88.88V141a.88.88,0,0,0,.86.88l36.22.45a.87.87,0,0,1,.87.87v.55a.88.88,0,0,1-.89.87L16,144.11a.88.88,0,0,0-.89.93l.11,2a.87.87,0,0,0,.87.82l34.59.45a.88.88,0,1,1,0,1.75l-34.09-.18a.87.87,0,0,0-.88.93l.15,2.28a.88.88,0,0,0,.87.81l32.88.33a.86.86,0,0,1,.86.87v.25a.87.87,0,0,1-.87.87H17.16a.87.87,0,0,0-.87.93l.05.9a.87.87,0,0,0,.86.82l31,.35a.88.88,0,0,1,.86.88v.44a.87.87,0,0,1-.87.87H17.87a.88.88,0,0,0-.85,1.1l.38,1.47a.88.88,0,0,0,.85.65H46.59a.88.88,0,0,1,.88.95l0,.23a.88.88,0,0,1-.86.8l-27.76.54a.87.87,0,0,0-.8,1.19c.55,1.44,1.11,2.89,1.67,4.33a1.55,1.55,0,0,0,1.46,1l29.05-.24A1.56,1.56,0,0,0,51.74,172l4.89-46.14a.87.87,0,0,0-.91-1L15,126.93l-.74.49-1,2A.88.88,0,0,0,14.09,130.71Z"/><path class="cls-2" d="M84.3,115.66l20.84-9.7a.78.78,0,0,0,.42-.5l2.33-8.5a.79.79,0,0,0-1.07-.93l-21,9a.77.77,0,0,0-.45.54l-2.18,9.22A.78.78,0,0,0,84.3,115.66Z"/><path class="cls-2" d="M184.7,117.26l143,16.92a2.55,2.55,0,0,0,2.82-2.87,119,119,0,0,0-20.87-53.26,2.43,2.43,0,0,0-.94-.8l-5.54-2.76,2.66,5.17.09.1a106.54,106.54,0,0,1,18.72,47.79,2.27,2.27,0,0,1-2.52,2.57L193.81,114.94a2.31,2.31,0,0,1-2.06-2.29L190.81,26a2.33,2.33,0,0,1,3.38-2.11l43.95,21.86q-1.23-2.41-2.45-4.83L185.12,15.77a2.6,2.6,0,0,0-3.76,2.35q.52,48.3,1,96.59A2.61,2.61,0,0,0,184.7,117.26Z"/><path class="cls-2" d="M78.66,217.58,58.71,204.83a901.36,901.36,0,0,1,195.45-39.68c24.28-3.82,55.8-2,75.84-17.47,5.4,19-74.59,24.51-88.64,27.45-33.54,7-59,8.23-94.32,18.68-23.66,7-47.75,15.86-47.75,15.86C90.78,212.8,83.7,215.56,78.66,217.58Z"/><path class="cls-5" d="M58.71,204.83s57.41-17.05,90.61-24a901.06,901.06,0,0,1,104.84-15.66c24.28-3.82,55.8-2,75.84-17.47,5.4,19-74.59,24.51-88.64,27.45-33.54,7-59,8.23-94.32,18.68-23.66,7-47.75,15.86-47.75,15.86l-20.18,8.79"/><path class="cls-2" d="M346.68,109.69C328.7,47.4,263.67-5.23,198,.42,237.89,5.18,277.28,24.79,304.37,55c71.46,85.18,40.76,196.71-58.45,242.44C325.87,279,373.56,186.35,346.68,109.69Z"/><text class="cls-6" transform="matrix(0.98, 0.19, -0.19, 0.98, 130.77, 277.25)">R</text><text class="cls-6" transform="translate(164.3 283.69) rotate(-1.58)">O</text><text class="cls-6" transform="translate(209.21 281.55) rotate(-17.56)">D</text><text class="cls-6" transform="matrix(0.85, -0.52, 0.52, 0.85, 245.17, 269.7)">V</text><text class="cls-6" transform="matrix(0.71, -0.71, 0.71, 0.71, 273.65, 252.25)">A</text><text class="cls-6" transform="translate(301.07 223.48) rotate(-58.3)">L</text><path class="cls-2" d="M148.67,160.06c-1.61-8.12-7.06-14.11-13.56-14.11-7.75,0-14,8.52-14,19s6.29,19,14,19a11.81,11.81,0,0,0,8.45-3.86A25.45,25.45,0,0,0,148.93,164,30.86,30.86,0,0,0,148.67,160.06Z"/><path class="cls-7" d="M142.5,162.94c-.83-4.19-3.65-7.28-7-7.28-4,0-7.26,4.4-7.26,9.83s3.25,9.83,7.26,9.83a6.12,6.12,0,0,0,4.36-2,13.16,13.16,0,0,0,2.77-8.38A16.55,16.55,0,0,0,142.5,162.94Z"/><path class="cls-1" d="M140.83,163.54c-.63-3.2-2.78-5.56-5.35-5.56-3.06,0-5.54,3.36-5.54,7.51s2.48,7.51,5.54,7.51a4.67,4.67,0,0,0,3.34-1.52,10.12,10.12,0,0,0,2.12-6.4A11.05,11.05,0,0,0,140.83,163.54Z"/><path class="cls-2" d="M139,164.86a4.62,4.62,0,0,0-3.35-3.5c-.11.13.88.71,1.48,2.17.67,1.67.72,4.25-.72,5.14a2.38,2.38,0,0,1-1.93.22c-1.67-.54-2.11-2.88-2.31-2.81a4.11,4.11,0,0,0,.93,3,3.51,3.51,0,0,0,2.55,1.73,2.82,2.82,0,0,0,2.09-1,6.31,6.31,0,0,0,1.33-4A6.15,6.15,0,0,0,139,164.86Z"/><path class="cls-1" d="M141.28,147.42q-1.75,4.37-3.5,8.73a9.82,9.82,0,0,1,2.92,2.71,10.66,10.66,0,0,1,1.79,7.32,11,11,0,0,1-1.23,4.7,10.84,10.84,0,0,1-3.53,4q-2.21,4.51-4.43,9a10.05,10.05,0,0,0,4.42,0,11.1,11.1,0,0,0,4.2-2.1c5.28-4.11,6.51-11.35,6.77-12.87a26.43,26.43,0,0,0,.11-7.63,22.44,22.44,0,0,0-1.88-6.8,18.83,18.83,0,0,0-2.9-4.51A16.57,16.57,0,0,0,141.28,147.42Z"/><path class="cls-2" d="M233.89,150.52c-1.2-6.08-5.28-10.56-10.14-10.56-5.8,0-10.5,6.37-10.5,14.24s4.7,14.24,10.5,14.24a8.85,8.85,0,0,0,6.32-2.89,19,19,0,0,0,4-12.13A22.89,22.89,0,0,0,233.89,150.52Z"/><path class="cls-7" d="M229.27,152.67c-.62-3.13-2.72-5.45-5.23-5.45-3,0-5.43,3.29-5.43,7.36s2.43,7.35,5.43,7.35a4.57,4.57,0,0,0,3.26-1.49,9.83,9.83,0,0,0,2.07-6.26A10.64,10.64,0,0,0,229.27,152.67Z"/><path class="cls-1" d="M228,153.12c-.48-2.39-2.09-4.16-4-4.16-2.29,0-4.15,2.51-4.15,5.62s1.86,5.61,4.15,5.61a3.48,3.48,0,0,0,2.49-1.13,7.55,7.55,0,0,0,1.59-4.79A8.77,8.77,0,0,0,228,153.12Z"/><path class="cls-2" d="M226.66,154.11a3.45,3.45,0,0,0-2.51-2.62c-.08.1.66.53,1.11,1.62.5,1.25.54,3.18-.54,3.85a1.78,1.78,0,0,1-1.44.16c-1.25-.4-1.58-2.15-1.73-2.1a3,3,0,0,0,.7,2.24,2.61,2.61,0,0,0,1.9,1.29,2.11,2.11,0,0,0,1.56-.71,4.75,4.75,0,0,0,1-3A5.55,5.55,0,0,0,226.66,154.11Z"/><path class="cls-1" d="M228.36,141.06q-1.31,3.27-2.62,6.54a7.18,7.18,0,0,1,2.19,2,8,8,0,0,1,1.34,5.47,8.1,8.1,0,0,1-.92,3.52,8.25,8.25,0,0,1-2.64,3c-1.1,2.25-2.21,4.5-3.31,6.74a7.56,7.56,0,0,0,3.3,0,8.49,8.49,0,0,0,3.14-1.58c3.95-3.07,4.87-8.49,5.06-9.62a19.4,19.4,0,0,0,.08-5.71,16.52,16.52,0,0,0-1.4-5.09,14,14,0,0,0-2.17-3.37A12.61,12.61,0,0,0,228.36,141.06Z"/><path class="cls-2" d="M304.82,147.8c-.78-4-3.44-6.89-6.61-6.89-3.79,0-6.86,4.16-6.86,9.29s3.07,9.29,6.86,9.29a5.75,5.75,0,0,0,4.12-1.88,12.39,12.39,0,0,0,2.62-7.92A13,13,0,0,0,304.82,147.8Z"/><path class="cls-7" d="M301.81,149.21c-.4-2.05-1.78-3.56-3.42-3.56-1.95,0-3.54,2.15-3.54,4.8s1.59,4.8,3.54,4.8a3,3,0,0,0,2.13-1,6.39,6.39,0,0,0,1.36-4.08A7.66,7.66,0,0,0,301.81,149.21Z"/><path class="cls-1" d="M301,149.5c-.31-1.57-1.36-2.72-2.61-2.72-1.5,0-2.71,1.64-2.71,3.67s1.21,3.66,2.71,3.66a2.23,2.23,0,0,0,1.62-.74,4.86,4.86,0,0,0,1-3.12A6,6,0,0,0,301,149.5Z"/><path class="cls-2" d="M300.11,150.14a2.27,2.27,0,0,0-1.64-1.71c-.06.07.43.35.72,1.06s.35,2.08-.35,2.51a1.19,1.19,0,0,1-.94.11c-.82-.26-1-1.41-1.13-1.37a2,2,0,0,0,.46,1.46,1.69,1.69,0,0,0,1.24.84,1.41,1.41,0,0,0,1-.47,3,3,0,0,0,.65-2A3.59,3.59,0,0,0,300.11,150.14Z"/><path class="cls-1" d="M301.22,141.63l-1.71,4.26a4.93,4.93,0,0,1,1.43,1.32,5.24,5.24,0,0,1,.87,3.57,5.49,5.49,0,0,1-.6,2.3,5.34,5.34,0,0,1-1.72,1.93l-2.17,4.41a5.05,5.05,0,0,0,2.16,0,5.41,5.41,0,0,0,2-1c2.58-2,3.18-5.54,3.3-6.28a12.58,12.58,0,0,0,.06-3.73A10.78,10.78,0,0,0,304,145a9.21,9.21,0,0,0-1.41-2.2A8.24,8.24,0,0,0,301.22,141.63Z"/><path class="cls-2" d="M317.45,146.83c-.63-3.19-2.78-5.55-5.33-5.55-3.05,0-5.52,3.35-5.52,7.49s2.47,7.48,5.52,7.48a4.63,4.63,0,0,0,3.32-1.51,10,10,0,0,0,2.11-6.38A12.82,12.82,0,0,0,317.45,146.83Z"/><path class="cls-7" d="M315,148c-.33-1.65-1.43-2.87-2.75-2.87-1.58,0-2.85,1.73-2.85,3.87s1.27,3.86,2.85,3.86a2.38,2.38,0,0,0,1.71-.78,5.16,5.16,0,0,0,1.09-3.29A6.7,6.7,0,0,0,315,148Z"/><path class="cls-1" d="M314.36,148.2a2.4,2.4,0,0,0-2.1-2.19c-1.2,0-2.18,1.33-2.18,3s1,2.95,2.18,2.95a1.81,1.81,0,0,0,1.31-.6,4,4,0,0,0,.84-2.51A4.07,4.07,0,0,0,314.36,148.2Z"/><path class="cls-2" d="M313.65,148.72a1.81,1.81,0,0,0-1.32-1.37c-.05.05.35.27.58.85s.28,1.67-.28,2a.92.92,0,0,1-.76.08c-.66-.21-.83-1.13-.91-1.1a1.6,1.6,0,0,0,.37,1.18,1.39,1.39,0,0,0,1,.68,1.12,1.12,0,0,0,.82-.38,2.48,2.48,0,0,0,.52-1.58C313.67,149,313.66,148.84,313.65,148.72Z"/><path class="cls-1" d="M314.54,141.86l-1.38,3.44a3.88,3.88,0,0,1,1.16,1.06,4.26,4.26,0,0,1,.7,2.88,4.31,4.31,0,0,1-.49,1.85,4.25,4.25,0,0,1-1.38,1.55l-1.74,3.55a4.17,4.17,0,0,0,1.73,0,4.38,4.38,0,0,0,1.65-.83,8.28,8.28,0,0,0,2.66-5.06,10,10,0,0,0,.05-3,8.85,8.85,0,0,0-.74-2.67,7.28,7.28,0,0,0-1.14-1.78A6.66,6.66,0,0,0,314.54,141.86Z"/><path class="cls-2" d="M327.3,144.14c-.49-2.48-2.16-4.32-4.15-4.32-2.37,0-4.29,2.61-4.29,5.83s1.92,5.82,4.29,5.82a3.6,3.6,0,0,0,2.59-1.18,7.76,7.76,0,0,0,1.64-5A9.39,9.39,0,0,0,327.3,144.14Z"/><path class="cls-7" d="M325.41,145a2.44,2.44,0,0,0-2.14-2.23c-1.22,0-2.22,1.34-2.22,3s1,3,2.22,3a1.9,1.9,0,0,0,1.34-.61,4,4,0,0,0,.85-2.56A4.07,4.07,0,0,0,325.41,145Z"/><path class="cls-1" d="M324.9,145.21a1.88,1.88,0,0,0-1.63-1.71c-.94,0-1.7,1-1.7,2.3s.76,2.3,1.7,2.3a1.44,1.44,0,0,0,1-.46,3.14,3.14,0,0,0,.65-2A3.57,3.57,0,0,0,324.9,145.21Z"/><path class="cls-2" d="M324.34,145.61a1.4,1.4,0,0,0-1-1.07s.27.22.45.67.22,1.3-.22,1.57a.68.68,0,0,1-.59.06c-.51-.16-.64-.88-.71-.85a1.29,1.29,0,0,0,.29.91,1.09,1.09,0,0,0,.78.53.91.91,0,0,0,.64-.29,1.93,1.93,0,0,0,.41-1.23A1.53,1.53,0,0,0,324.34,145.61Z"/><path class="cls-1" d="M325,140.27c-.36.9-.71,1.79-1.07,2.68a3.09,3.09,0,0,1,.9.82,3.28,3.28,0,0,1,.54,2.24,3.36,3.36,0,0,1-1.45,2.65l-1.36,2.76a3.19,3.19,0,0,0,1.35,0,3.38,3.38,0,0,0,1.29-.65,6.5,6.5,0,0,0,2.07-3.93,8,8,0,0,0,0-2.34,6.9,6.9,0,0,0-.57-2.08,5.56,5.56,0,0,0-.89-1.38A5.3,5.3,0,0,0,325,140.27Z"/></g></g></svg>